<?xml version="1.0" encoding="utf-8"?>
<!-- Generator: Adobe Illustrator 27.5.0, SVG Export Plug-In . SVG Version: 6.00 Build 0)  -->
<svg version="1.1" id="Ñëîé_1" xmlns="http://www.w3.org/2000/svg" xmlns:xlink="http://www.w3.org/1999/xlink" x="0px" y="0px"
	 viewBox="0 0 750 750" style="enable-background:new 0 0 750 750;" xml:space="preserve">
<g>
	<rect x="0" style="fill:#FFFFFF;" width="750" height="750"/>
	<path style="opacity:0.05;fill:#9FC3C4;" d="M627.993,575.983H122.007c-27.614,0-50-22.386-50-50V182.013c0-27.614,22.386-50,50-50
		h505.986c27.614,0,50,22.386,50,50v343.969C677.993,553.597,655.607,575.983,627.993,575.983z"/>
	<g>
		<g>
			<path style="fill:#4A3A4F;" d="M195.382,383.43c-1.553,1.342-3.931,1.114-5.313-0.495l-56.453-65.634
				c-1.386-1.616-1.255-4.003,0.291-5.323l94.831-81.575c1.545-1.337,3.933-1.108,5.316,0.501l56.45,65.628
				c1.389,1.61,1.252,4.004-0.291,5.327L195.382,383.43z"/>
			<path style="fill:#9FC3C4;" d="M196.945,370.557c-1.314,1.124-3.288,0.974-4.432-0.331l-45.964-53.461
				c-1.135-1.297-0.994-3.278,0.32-4.414l80.297-69.069c1.322-1.126,3.294-0.979,4.43,0.337l45.974,53.447
				c1.129,1.321,0.986,3.288-0.325,4.416L196.945,370.557z"/>
			<path style="fill:#ACD3D4;" d="M201.446,265.405l-29.289,25.193l102.775,12.873l2.313-1.989c1.311-1.128,1.455-3.095,0.325-4.416
				l-21.33-24.797L201.446,265.405z"/>
			<polygon style="fill:#ACD3D4;" points="221.782,349.192 168.715,342.545 181.246,357.12 208.585,360.544 			"/>
			<g>
				<g>
					<g>
						<path style="fill:#FFFFFF;" d="M165.685,303.159c-0.384-0.368-0.62-0.887-0.615-1.46c0.01-1.105,0.913-1.992,2.017-1.982
							l25.295,0.224c0.603,0.005,1.176,0.285,1.548,0.755c0.376,0.472,0.518,1.089,0.388,1.678l-2.052,9.256l32.604-6.763
							c0.564-0.117,1.151,0.015,1.61,0.362l7.548,5.694l26.304-5.152c1.083-0.212,2.135,0.493,2.347,1.578
							c0.212,1.084-0.494,2.135-1.578,2.347l-27.18,5.323c-0.558,0.109-1.135-0.024-1.589-0.366l-7.537-5.686l-34.745,7.207
							c-0.664,0.138-1.362-0.065-1.83-0.554c-0.476-0.483-0.676-1.175-0.529-1.838l2.188-9.864l-22.825-0.202
							C166.521,303.711,166.04,303.5,165.685,303.159z"/>
					</g>
				</g>
			</g>
		</g>
	</g>
	<g>
		<polygon style="fill:#F8EBEC;" points="468.01,204.626 446.622,245.897 432.366,292.26 495.483,326.389 508.028,268.904 
			524.678,242.683 		"/>
		<polygon style="fill:#E8DBDC;" points="524.678,242.683 468.01,204.626 446.622,245.897 508.028,268.904 		"/>
		<polygon style="opacity:0.5;fill:#4A3A4F;" points="471.776,219.948 513.737,246.345 511.817,249.324 470.373,221.971 		"/>
		<polygon style="opacity:0.5;fill:#4A3A4F;" points="466.753,228.665 508.715,255.062 506.795,258.041 465.351,230.688 		"/>
		<polygon style="opacity:0.5;fill:#4A3A4F;" points="461.751,236.774 503.712,263.171 501.792,266.15 460.348,238.797 		"/>
		<polygon style="opacity:0.5;fill:#4A3A4F;" points="458.402,246.396 500.292,271.21 499.07,275.184 457.956,248.936 		"/>
		<polygon style="opacity:0.5;fill:#4A3A4F;" points="454.317,256.237 495.58,281.639 494.507,284.766 453.702,260.231 		"/>
		<polygon style="opacity:0.5;fill:#4A3A4F;" points="450.632,268.767 491.895,294.168 490.822,297.296 450.017,272.76 		"/>
		<polygon style="opacity:0.5;fill:#4A3A4F;" points="444.956,282.692 488.849,309.515 487.776,312.643 444.341,286.685 		"/>
	</g>
	<g>
		<polygon style="fill:#F8EBEC;" points="245.97,404.617 201.88,419.342 153.866,426.23 129.946,358.582 188.681,355.11 
			217.168,342.731 		"/>
		<polygon style="fill:#E8DBDC;" points="217.168,342.731 245.97,404.617 201.88,419.342 188.681,355.11 		"/>
		<polygon style="opacity:0.5;fill:#4A3A4F;" points="231.417,398.52 211.852,352.971 208.611,354.405 229.202,399.592 		"/>
		<polygon style="opacity:0.5;fill:#4A3A4F;" points="222.027,402.129 202.461,356.579 199.221,358.014 219.811,403.2 		"/>
		<polygon style="opacity:0.5;fill:#4A3A4F;" points="213.24,405.812 193.674,360.263 190.434,361.697 211.024,406.884 		"/>
		<polygon style="opacity:0.5;fill:#4A3A4F;" points="203.215,407.628 185.202,362.394 181.087,362.984 200.637,407.674 		"/>
		<polygon style="opacity:0.5;fill:#4A3A4F;" points="192.859,410.136 174.168,365.431 170.912,366.006 188.819,410.124 		"/>
		<polygon style="opacity:0.5;fill:#4A3A4F;" points="179.91,411.832 161.219,367.127 157.963,367.702 175.869,411.82 		"/>
		<polygon style="opacity:0.5;fill:#4A3A4F;" points="165.272,415.278 145.585,367.754 142.329,368.329 161.232,415.266 		"/>
	</g>
	<g>
		<g>
			<path style="fill:#00798F;" d="M596.878,427.522l-11.137-4.987c-1.594-0.714-2.308-2.585-1.594-4.179l0,0
				c0.714-1.594,2.585-2.308,4.179-1.594l11.134,4.985c1.02,0.457,2.228-0.004,2.685-1.024l3.713-8.293
				c0.458-1.023,0-2.223-1.023-2.681l-11.137-4.987c-1.594-0.714-2.308-2.585-1.594-4.179l0,0c0.714-1.594,2.585-2.308,4.179-1.594
				l11.134,4.985c4.213,1.886,6.099,6.83,4.213,11.043l-3.713,8.293C606.031,427.522,601.089,429.407,596.878,427.522z"/>
		</g>
		<g>
			<g>
				
					<rect x="557.491" y="387.4" transform="matrix(0.4086 -0.9127 0.9127 0.4086 -26.7128 768.7182)" style="fill:#009EBA;" width="44.733" height="35.147"/>
			</g>
		</g>
		<g>
			<g>
				
					<rect x="570.269" y="407.12" transform="matrix(0.4086 -0.9127 0.9127 0.4086 -24.3791 783.7617)" style="fill:#0091AB;" width="44.733" height="7.147"/>
			</g>
		</g>
		<g>
			<g>
				
					<rect x="548.706" y="395.841" transform="matrix(0.4086 -0.9127 0.9127 0.4086 -28.3156 758.3784)" style="fill:#00ADCC;" width="44.733" height="10.397"/>
			</g>
		</g>
	</g>
	<g>
		<path style="fill:#4A3A4F;" d="M597.812,329.399c1.574,2.852,0.538,6.443-2.314,8.016l-44.772,24.709
			c-2.851,1.575-6.441,0.539-8.015-2.316l-46.189-83.688c-1.571-2.856-0.539-6.444,2.314-8.017l44.774-24.711
			c2.85-1.575,6.444-0.537,8.018,2.313L597.812,329.399z"/>
		<path style="fill:#5A4761;" d="M573.527,338.308c-1.577-2.852-5.161-3.889-8.017-2.313c-2.855,1.574-3.887,5.162-2.315,8.017
			c1.573,2.854,5.162,3.89,8.016,2.315C574.065,344.75,575.104,341.163,573.527,338.308z"/>
		<path style="fill:#9FC3C4;" d="M585.098,316.948c0.664,1.206,0.227,2.718-0.976,3.383l-41.782,23.059
			c-1.204,0.663-2.721,0.229-3.386-0.978l-34.089-61.768c-0.664-1.204-0.225-2.718,0.98-3.383l41.782-23.058
			c1.202-0.665,2.718-0.228,3.383,0.975L585.098,316.948z"/>
		<path style="fill:#ACD3D4;" d="M533.669,332.836l22.504-68.302l-5.163-9.355c-0.666-1.202-2.18-1.64-3.383-0.975l-22.552,12.445
			l-10.443,31.695L533.669,332.836z"/>
	</g>
	<g>
		<g>
			<path style="opacity:0.5;fill:#BDBFBE;" d="M347.555,246.396c-6.995-3.279-15.21-3.088-22.036,0.525
				c-12.035,6.365-16.643,21.336-10.276,33.368c6.366,12.032,21.335,16.647,33.37,10.278c7.566-4.003,12.438-11.456,13.077-19.976
				c1.763-3.314,4.494-7.034,7.855-7.095l-10.413-20.374C357.931,244.875,355.146,246.994,347.555,246.396z"/>
			<polygon style="fill:#989998;" points="363.936,252.714 354.965,259.225 342.529,278.185 342.851,269.475 336.221,269.367 
				339.077,263.585 331.316,259.477 342.155,261.949 339.402,266.697 345.417,268.116 345.111,271.888 353.755,257.564 			"/>
			<path style="opacity:0.5;fill:#BDBFBE;" d="M315.242,280.289c6.366,12.032,21.335,16.647,33.37,10.278
				c7.566-4.003,12.438-11.456,13.077-19.976c1.763-3.314,4.494-7.034,7.855-7.095l-10.413-20.374
				c-1.199,1.753-3.984,3.871-11.576,3.274c-6.995-3.279-15.21-3.088-22.036,0.525C313.484,253.286,308.875,268.258,315.242,280.289
				z M346.316,249.041l0.481,0.224l0.529,0.044c4.593,0.357,8.23-0.171,10.875-1.591l7.192,14.071
				c-2.271,1.358-4.374,3.839-6.284,7.43l-0.287,0.541l-0.043,0.61c-0.565,7.514-4.876,14.096-11.531,17.616
				c-10.613,5.616-23.812,1.547-29.428-9.063l-0.169-0.325c-5.344-10.526-1.204-23.577,9.232-29.092
				C332.889,246.324,340.152,246.152,346.316,249.041z"/>
			<path style="fill:#989998;" d="M384.235,244.346c1.21,2.173,0.467,4.915-1.674,6.181l-4.178,2.471
				c-0.273,0.139-0.928-0.525-1.46-1.487l-4.122-7.409c-0.537-0.957-0.744-1.848-0.471-1.99l3.966-2.346
				c2.222-1.314,5.09-0.537,6.345,1.718L384.235,244.346z"/>
			<path style="opacity:0.1;fill:#FFFFFF;" d="M347.555,246.396c-6.995-3.279-15.21-3.088-22.036,0.525
				c-12.035,6.365-16.643,21.336-10.276,33.368c6.366,12.032,21.335,16.647,33.37,10.278c7.566-4.003,12.438-11.456,13.077-19.976
				c1.763-3.314,4.494-7.034,7.855-7.095l-10.413-20.374C357.931,244.875,355.146,246.994,347.555,246.396z"/>
			
				<rect x="363.03" y="237.935" transform="matrix(0.8903 -0.4553 0.4553 0.8903 -73.0955 196.2611)" style="fill:#BDBFBE;" width="15.632" height="23.851"/>
			<path style="fill:#D1D4D3;" d="M369.529,236.018c0.199-0.109,1.22,1.438,2.283,3.449l8.222,15.543
				c1.061,2.013,1.759,3.732,1.56,3.83l-1.334,0.711c-0.197,0.101-1.222-1.444-2.285-3.452l-8.217-15.543
				c-1.064-2.013-1.763-3.726-1.563-3.832L369.529,236.018z"/>
			<path style="fill:#D1D4D3;" d="M366.491,237.561c0.2-0.109,1.219,1.435,2.286,3.447l8.218,15.545
				c1.065,2.011,1.762,3.73,1.562,3.829l-1.333,0.712c-0.197,0.101-1.221-1.444-2.285-3.454l-8.219-15.542
				c-1.061-2.012-1.762-3.725-1.562-3.831L366.491,237.561z"/>
			<path style="opacity:0.5;fill:#FFFFFF;" d="M340.732,250.847c5.841,4.202,6.166,13.737,0.732,21.292
				c-5.438,7.555-14.583,10.273-20.425,6.068c-5.841-4.202-6.167-13.736-0.73-21.293
				C325.749,249.361,334.89,246.645,340.732,250.847z"/>
			<path style="opacity:0.5;fill:#FFFFFF;" d="M335.032,252.715c3.95,2.843,4.176,9.296,0.497,14.409
				c-3.682,5.114-9.869,6.952-13.824,4.109c-3.951-2.845-4.173-9.297-0.49-14.41C324.891,251.709,331.079,249.87,335.032,252.715z"
				/>
			<path style="opacity:0.5;fill:#FFFFFF;" d="M327.964,255.275c1.899,1.366,2.007,4.466,0.238,6.924
				c-1.771,2.456-4.743,3.339-6.64,1.973c-1.899-1.367-2.008-4.466-0.239-6.924C323.091,254.791,326.063,253.909,327.964,255.275z"
				/>
		</g>
	</g>
	<g>
		<g>
			<g>
				<g>
					<path style="fill:#603141;" d="M317.043,387.177c0,0-18.043-56.922,16.068-51.43c34.111,5.492,52.192-4.394,69.073-7.405
						c26.152-4.665,40.73,8.034,28.891,60.778L317.043,387.177z"/>
					<path style="fill:#F59784;" d="M433.518,398.95l-117,0.324c-3.682,0.01-6.675-2.966-6.685-6.648l0,0
						c-0.01-3.682,2.966-6.675,6.648-6.685l117-0.324c3.682-0.01,6.675,2.966,6.685,6.648l0,0
						C440.177,395.947,437.2,398.94,433.518,398.95z"/>
					<path style="fill:#FFA897;" d="M399.344,581.852l-47.772,0.295c-12.325,0.076-22.539-9.643-23.206-22.082l-9.624-179.49
						c-1.199-20.046,14.494-37,34.363-37.122l41.755-0.258c19.869-0.123,35.771,16.635,34.819,36.695l-7.404,179.595
						C421.762,571.931,411.669,581.776,399.344,581.852z"/>
					<g>
						<path style="fill:#603141;" d="M349.039,392.28c-0.567,0.159-1.199-0.027-1.585-0.519c-1.03-1.314-2.538-2.83-3.874-2.595
							c-1.585,0.299-2.923,2.94-3.329,4.185c-0.257,0.787-1.103,1.217-1.891,0.961c-0.788-0.257-1.218-1.104-0.961-1.891
							c0.185-0.565,1.911-5.562,5.66-6.208c2.248-0.397,4.521,0.847,6.757,3.697c0.511,0.652,0.397,1.595-0.255,2.106
							C349.401,392.141,349.223,392.228,349.039,392.28z"/>
					</g>
					<g>
						<path style="fill:#603141;" d="M400.919,392.28c0.567,0.159,1.199-0.027,1.585-0.519c1.03-1.314,2.538-2.83,3.874-2.595
							c1.585,0.299,2.923,2.94,3.329,4.185c0.257,0.787,1.103,1.217,1.891,0.961c0.788-0.257,1.218-1.104,0.961-1.891
							c-0.185-0.565-1.911-5.562-5.66-6.208c-2.248-0.397-4.522,0.847-6.757,3.697c-0.511,0.652-0.397,1.595,0.255,2.106
							C400.558,392.141,400.735,392.228,400.919,392.28z"/>
					</g>
					<path style="fill:#4A3A4F;" d="M327.437,542.735l0.929,17.33c0.667,12.439,10.881,22.159,23.206,22.082l47.772-0.295
						c12.325-0.076,22.418-9.921,22.931-22.368l0.717-17.393L327.437,542.735z"/>
					<g>
						<polygon style="fill:#E9E6ED;" points="328.214,557.23 422.394,556.596 427.074,443.062 376.4,457.78 322.13,443.768 						
							"/>
						<g>
							<path style="fill:#FFA897;" d="M227.962,487.099l-0.003,0.004c-0.849,1.143-0.942,2.679-0.239,3.916l4.771,8.387
								l-1.011,12.051l3.862,8.521l8.487-6.504l-3.678-18.601l-6.538-7.919C232.129,485.156,229.352,485.227,227.962,487.099z"/>
							<path style="fill:#FFA897;" d="M232.037,504c0,0-5.84,1.085-8.013-0.213c-2.173-1.298-3.079-9.146,1.904-9.699
								c4.983-0.554,2.988-7.362-0.996-6.844c-3.984,0.518-12.71,8.335-10.375,17.633c0,0-10.926-1.235-13.951,1.625
								c-3.025,2.86-1.307,5.425,0.808,5.099s11.64,0.209,11.64,0.209l-0.085,1.129c0,0-9.53-0.659-11.493,0.412
								c-1.963,1.071-2.917,5.858,2.691,5.282c5.608-0.576,19.297,0.977,19.297,0.977l11.376,4.471l6.642-11.287L232.037,504z"/>
							<g>
								<path style="fill:#E9E6ED;" d="M272.473,539.573c-21.52,0-38.724-12.292-44.413-16.904l15.115-18.643
									c9.896,8.024,25.569,14.788,39.876,9.717c17.853-6.332,31.509-29.687,39.492-67.539l23.483,4.953
									c-9.939,47.13-28.428,75.798-54.953,85.205C284.647,538.642,278.395,539.573,272.473,539.573z"/>
							</g>
							<path style="fill:#FFA897;" d="M522.038,487.099l0.003,0.004c0.849,1.143,0.942,2.679,0.239,3.916l-4.771,8.387l1.011,12.051
								l-3.862,8.521l-8.487-6.504l3.678-18.601l6.538-7.919C517.871,485.156,520.648,485.227,522.038,487.099z"/>
							<path style="fill:#FFA897;" d="M517.963,504c0,0,5.84,1.085,8.013-0.213c2.173-1.298,3.079-9.146-1.904-9.699
								c-4.983-0.554-2.988-7.362,0.996-6.844c3.984,0.518,12.71,8.335,10.376,17.633c0,0,10.926-1.235,13.951,1.625
								c3.025,2.86,1.307,5.425-0.808,5.099c-2.115-0.326-11.64,0.209-11.64,0.209l0.085,1.129c0,0,9.53-0.659,11.493,0.412
								c1.963,1.071,2.917,5.858-2.691,5.282c-5.608-0.576-19.297,0.977-19.297,0.977l-11.376,4.471l-6.642-11.287L517.963,504z"/>
							<g>
								<path style="fill:#E9E6ED;" d="M477.527,539.573c21.52,0,38.724-12.292,44.413-16.904l-15.115-18.643
									c-9.896,8.024-25.569,14.788-39.875,9.717c-17.854-6.332-31.509-29.687-39.492-67.539l-23.483,4.953
									c9.939,47.13,28.428,75.798,54.953,85.205C465.352,538.642,471.605,539.573,477.527,539.573z"/>
							</g>
						</g>
						<polygon style="fill:#7785D4;" points="376.4,457.78 364.822,463.8 373.364,470.222 379.619,470.194 386.628,464.583 						
							"/>
						<polygon style="fill:#FBF7FF;" points="322.13,443.768 355.286,469.663 376.4,457.78 394.411,469.663 427.074,443.062 
							376.4,457.78 						"/>
						<polygon style="fill:#7785D4;" points="373.364,470.222 366.14,527.304 376.607,537.6 387.197,528.121 379.619,470.194 						
							"/>
					</g>
				</g>
				<path style="fill:#603141;" d="M347.297,359.443c-33.876-6.445-29.837-46.076,7.635-49.721c6.312-0.614-6.886,8.264-4.089,9.357
					c7.119-5.831,21.904-12.984,39.672-8.268c3.909,1.038-11.968,7.901-7.696,7.015c18.68-3.874,27.954,2.095,26.924,4.268
					c-1.03,2.173-14.824,4.287-1.672,19.635C415.569,350.479,391.379,367.829,347.297,359.443z"/>
				<g>
					<g>
						<path style="fill:#603141;" d="M351.593,377.86c-6.133-4.509-12.843-2.102-15.534-0.199c-0.676,0.478-0.837,1.414-0.359,2.091
							c0.477,0.676,1.414,0.837,2.091,0.358c0.06-0.042,6.084-4.201,12.026,0.167c0.291,0.214,0.634,0.307,0.968,0.289
							c0.433-0.023,0.852-0.233,1.129-0.61C352.405,379.29,352.261,378.352,351.593,377.86z"/>
						<path style="opacity:0.2;fill:#F7636C;" d="M347.121,413.199c-0.18-4.046-3.605-7.181-7.651-7.001
							c-4.046,0.18-7.18,3.605-7.001,7.651c0.18,4.046,3.605,7.18,7.651,7.001C344.166,420.671,347.3,417.245,347.121,413.199z"/>
					</g>
					<g>
						<path style="fill:#603141;" d="M398.406,377.86c6.133-4.509,12.843-2.102,15.534-0.199c0.676,0.478,0.837,1.414,0.358,2.091
							c-0.477,0.676-1.414,0.837-2.091,0.358c-0.06-0.042-6.084-4.201-12.025,0.167c-0.291,0.214-0.634,0.307-0.968,0.289
							c-0.433-0.023-0.852-0.233-1.129-0.61C397.595,379.29,397.739,378.352,398.406,377.86z"/>
						<path style="opacity:0.2;fill:#F7636C;" d="M402.879,413.199c0.18-4.046,3.605-7.181,7.651-7.001
							c4.046,0.18,7.181,3.605,7.001,7.651c-0.18,4.046-3.605,7.18-7.651,7.001C405.834,420.671,402.699,417.245,402.879,413.199z"
							/>
					</g>
				</g>
				<g>
					<path style="fill:#F7636C;" d="M375.34,431.597c-11.717,0-21.25-7.233-21.25-16.125c0-0.553,0.448-1,1-1c0.552,0,1,0.447,1,1
						c0,7.788,8.636,14.125,19.25,14.125c10.614,0,19.25-6.337,19.25-14.125c0-0.553,0.448-1,1-1c0.552,0,1,0.447,1,1
						C396.59,424.364,387.057,431.597,375.34,431.597z"/>
				</g>
			</g>
			<g>
				<g>
					<g>
						<path style="fill:#4A3A4F;" d="M350.451,580.738l83.733-22.649c3.629-1.334,7.652,0.53,8.985,4.156
							c1.334,3.628-0.527,7.651-4.156,8.985l-83.374,22.506L350.451,580.738z"/>
						<polygon style="fill:#603141;" points="338.067,578.076 352.691,580.072 357.713,592.656 347.302,598.639 						"/>
					</g>
				</g>
				<g>
					<g>
						<path style="fill:#4A3A4F;" d="M399.549,580.738l-83.733-22.649c-3.628-1.334-7.652,0.53-8.985,4.156
							c-1.334,3.628,0.527,7.651,4.156,8.985l83.374,22.506L399.549,580.738z"/>
						<polygon style="fill:#603141;" points="411.933,578.076 397.309,580.072 392.287,592.656 402.698,598.639 						"/>
					</g>
				</g>
			</g>
		</g>
		<path style="fill:#DBBDAB;" d="M426,618.681c0,3.72-22.833,6.736-51,6.736s-51-3.016-51-6.736c0-3.72,22.833-6.736,51-6.736
			S426,614.961,426,618.681z"/>
	</g>
	<polygon style="fill:#F7636C;" points="280.304,240.406 285.297,236.742 285.109,230.551 290.137,234.167 295.967,232.075 
		294.081,237.975 297.872,242.873 291.679,242.902 288.192,248.021 286.25,242.14 	"/>
	<polygon style="fill:#E8DBDC;" points="514.911,368.641 519.299,372.636 525.078,371.286 522.635,376.694 525.705,381.773 
		519.806,381.12 515.925,385.61 514.723,379.798 509.254,377.494 514.409,374.555 	"/>
</g>
</svg>
